# File created by Blade
# Date/Time:  Wed Apr 08 17:24:36 2015
# Frame Rate: 120.000 fps
#------------------------------------------------------
:FULLY-SPECIFIED
:DEGREES
844
root 12.358350 38.792255 3.326557 168.261015 -40.120910 -125.909923
Spine -15.226049 7.203407 16.411916
Head -3.240187 4.342994 21.346884
LeftShoulder -3.741858 17.831223 21.105979
LeftArm 17.582502 12.207668 -73.108114
LeftForeArm 14.467429 -0.000000 34.918418
LeftHand -16.505869 -0.000000 -6.634621
LeftHandThumb1 -26.253704 0.000000 33.147579
RightShoulder -37.285617 -48.223113 24.810030
RightArm 51.423616 -7.887909 56.804695
RightForeArm 54.246054 -0.000000 32.396959
RightHand -1.016696 0.000000 17.017277
RightHandThumb1 -24.326973 -0.000000 -32.862282
LeftUpLeg -51.716945 45.819886 0.877192
LeftLeg 15.536088 -0.000000 -0.000000
LeftFoot -13.424482 21.845797 -9.759937
LeftToeBase 0.048126 -0.000000 -0.000000
RightUpLeg -107.735510 -31.457712 12.210130
RightLeg 150.722113 -0.000000 -0.000000
RightFoot 6.341389 4.655774 15.477002
RightToeBase -7.763260 -0.000000 0.000000
845
root 12.332521 38.775805 3.343382 168.391032 -40.009180 -126.026692
Spine -15.331342 7.139623 16.433801
Head -3.248660 4.506344 21.279869
LeftShoulder -3.657328 17.687396 21.218621
LeftArm 17.652199 12.853281 -73.643791
LeftForeArm 14.712238 -0.000000 35.307558
LeftHand -16.558674 -0.000000 -6.741313
LeftHandThumb1 -26.253704 0.000000 33.147579
RightShoulder -37.342384 -48.253173 24.773894
RightArm 51.345342 -7.900006 56.759590
RightForeArm 54.179637 -0.000000 32.400715
RightHand -1.053345 -0.000000 16.966850
RightHandThumb1 -24.326973 -0.000000 -32.862282
LeftUpLeg -52.094639 45.942301 0.755364
LeftLeg 16.159740 -0.000000 -0.000000
LeftFoot -12.979330 21.630785 -9.224006
LeftToeBase 3.157125 -0.000000 -0.000000
RightUpLeg -107.348875 -31.692504 11.745792
RightLeg 150.746618 -0.000000 -0.000000
RightFoot 6.816675 5.039042 15.564250
RightToeBase -7.783836 -0.000000 0.000000
846
root 12.302789 38.757075 3.362122 168.505953 -39.873854 -126.164127
Spine -15.385624 7.066675 16.483812
Head -3.300083 4.702188 21.196710
LeftShoulder -3.606285 17.562901 21.306359
LeftArm 17.656541 13.515663 -74.196612
LeftForeArm 14.977862 -0.000000 35.832640
LeftHand -16.553258 0.000000 -6.855864
LeftHandThumb1 -26.253704 0.000000 33.147579
RightShoulder -37.372630 -48.270598 24.708573
RightArm 51.289261 -7.852196 56.807277
RightForeArm 53.964870 -0.000000 32.351915
RightHand -1.263839 -0.000000 16.865314
RightHandThumb1 -24.326973 -0.000000 -32.862282
LeftUpLeg -52.510487 46.117114 0.618914
LeftLeg 16.903955 -0.000000 -0.000000
LeftFoot -12.704826 21.546406 -8.798937
LeftToeBase 4.908517 -0.000000 -0.000000
RightUpLeg -106.940770 -31.880114 11.258808
RightLeg 150.766125 -0.000000 -0.000000
RightFoot 7.255623 5.432614 15.645827
RightToeBase -7.950210 -0.000000 0.000000
847
root 12.268768 38.733148 3.378781 168.577845 -39.647329 -126.409364
Spine -15.278041 7.079369 16.477662
Head -3.409292 4.927533 21.133889
LeftShoulder -3.593097 17.496898 21.372123
LeftArm 17.695518 14.180028 -74.719852
LeftForeArm 15.169296 -0.000000 36.500088
LeftHand -16.588980 0.000000 -7.010984
LeftHandThumb1 -26.253704 0.000000 33.147579
RightShoulder -37.396957 -48.257169 24.663085
RightArm 51.250353 -7.872678 56.748561
RightForeArm 53.885694 0.000000 32.332037
RightHand -1.230810 -0.000000 16.735701
RightHandThumb1 -24.326973 -0.000000 -32.862282
LeftUpLeg -52.782184 46.415663 0.533543
LeftLeg 17.709009 -0.000000 -0.000000
LeftFoot -12.546437 21.602933 -8.338901
LeftToeBase 6.157326 -0.000000 -0.000000
RightUpLeg -106.450692 -31.957187 10.652114
RightLeg 150.797498 -0.000000 -0.000000
RightFoot 7.643597 5.785438 15.643360
RightToeBase -7.996965 -0.000000 0.000000
848
root 12.228375 38.703359 3.392795 168.470600 -39.418219 -126.678408
Spine -14.937072 7.015565 16.525143
Head -3.563563 5.242114 21.025115
LeftShoulder -3.590970 17.472572 21.372397
LeftArm 17.703005 14.841349 -75.211424
LeftForeArm 15.317107 -0.000000 37.307578
LeftHand -16.482966 -0.000000 -6.923358
LeftHandThumb1 -26.253704 0.000000 33.147579
RightShoulder -37.293650 -48.214229 24.484015
RightArm 51.203901 -7.886169 56.774765
RightForeArm 53.781290 -0.000000 32.292721
RightHand -1.255846 0.000000 16.762078
RightHandThumb1 -24.326973 -0.000000 -32.862282
LeftUpLeg -52.735979 46.688475 0.658704
LeftLeg 18.536304 -0.000000 -0.000000
LeftFoot -12.379280 21.472425 -7.730629
LeftToeBase 6.092441 -0.000000 -0.000000
RightUpLeg -105.775963 -32.067163 9.943509
RightLeg 150.845211 -0.000000 -0.000000
RightFoot 7.931701 6.098313 15.518941
RightToeBase -8.042560 -0.000000 0.000000
849
root 12.183799 38.673018 3.406962 168.338578 -39.211794 -126.946017
Spine -14.596112 6.884355 16.599531
Head -3.629681 5.559344 20.902632
LeftShoulder -3.618800 17.502847 21.337785
LeftArm 17.691053 15.525270 -75.680367
LeftForeArm 15.518438 -0.000000 38.171731
LeftHand -16.445276 -0.000000 -6.919196
LeftHandThumb1 -26.253704 0.000000 33.147579
RightShoulder -37.146006 -48.182710 24.271520
RightArm 51.166772 -7.886243 56.831385
RightForeArm 53.636333 0.000000 32.250151
RightHand -1.283618 -0.000000 16.789812
RightHandThumb1 -24.326973 -0.000000 -32.862282
LeftUpLeg -52.528816 46.861710 0.899449
LeftLeg 19.274810 -0.000000 -0.000000
LeftFoot -12.169501 21.464280 -7.102052
LeftToeBase 5.445706 -0.000000 -0.000000
RightUpLeg -105.153715 -32.191543 9.306230
RightLeg 150.901044 -0.000000 -0.000000
RightFoot 8.190133 6.221368 15.337772
RightToeBase -8.076493 -0.000000 0.000000
850
root 12.141658 38.649195 3.425486 168.378642 -39.008019 -127.235959
Spine -14.453817 6.773771 16.652746
Head -3.604003 5.904767 20.750517
LeftShoulder -3.677864 17.621630 21.258377
LeftArm 17.710215 16.235792 -76.078292
LeftForeArm 15.715084 0.000000 39.049795
LeftHand -16.403637 -0.000000 -6.977145
LeftHandThumb1 -26.253704 0.000000 33.147579
RightShoulder -37.062546 -48.219865 24.108618
RightArm 51.225562 -7.926259 56.849346
RightForeArm 53.556448 -0.000000 32.168465
RightHand -1.218526 -0.000000 16.815540
RightHandThumb1 -24.326973 -0.000000 -32.862282
LeftUpLeg -52.340720 46.889975 1.159853
LeftLeg 19.896358 -0.000000 -0.000000
LeftFoot -11.902828 21.633393 -6.522400
LeftToeBase 4.712936 -0.000000 -0.000000
RightUpLeg -104.787215 -32.237265 8.868062
RightLeg 150.941959 -0.000000 -0.000000
RightFoot 8.312945 6.186856 15.187448
RightToeBase -7.953676 -0.000000 0.000000
851
root 12.091675 38.619839 3.440061 168.213743 -38.830923 -127.590489
Spine -14.033269 6.569992 16.700953
Head -3.585455 6.247455 20.577407
LeftShoulder -3.753095 17.697565 21.117049
LeftArm 17.724425 17.005852 -76.389808
LeftForeArm 15.886622 -0.000000 39.902490
LeftHand -16.295127 -0.000000 -6.920492
LeftHandThumb1 -26.253704 0.000000 33.147579
RightShoulder -36.845563 -48.219235 23.863162
RightArm 51.228229 -7.919414 56.964822
RightForeArm 53.411300 0.000000 32.132228
RightHand -1.210985 -0.000000 16.742850
RightHandThumb1 -24.326973 -0.000000 -32.862282
LeftUpLeg -51.610860 46.819239 1.757494
LeftLeg 20.436740 -0.000000 -0.000000
LeftFoot -11.900160 21.801995 -6.241525
LeftToeBase 4.185765 -0.000000 -0.000000
RightUpLeg -104.197537 -32.362970 8.297194
RightLeg 150.994735 -0.000000 -0.000000
RightFoot 8.370335 6.004329 15.027091
RightToeBase -7.854292 -0.000000 0.000000
852
root 12.038627 38.596173 3.456049 168.158459 -38.655746 -127.972331
Spine -13.744167 6.391612 16.723247
Head -3.481839 6.546244 20.402546
LeftShoulder -3.866220 17.856839 20.946409
LeftArm 17.823395 17.810751 -76.646831
LeftForeArm 16.072556 -0.000000 40.671276
LeftHand -16.072105 -0.000000 -6.882002
LeftHandThumb1 -26.253704 0.000000 33.147579
RightShoulder -36.738006 -48.204691 23.721147
RightArm 51.266622 -7.897817 57.075681
RightForeArm 53.232131 -0.000000 32.095914
RightHand -1.326774 -0.000000 16.693976
RightHandThumb1 -24.326973 -0.000000 -32.862282
LeftUpLeg -50.845414 46.663577 2.364466
LeftLeg 20.864821 -0.000000 -0.000000
LeftFoot -11.897722 22.021829 -6.009935
LeftToeBase 3.761060 -0.000000 -0.000000
RightUpLeg -103.789698 -32.450288 7.892753
RightLeg 151.046347 -0.000000 -0.000000
RightFoot 8.340807 5.687713 14.879569
RightToeBase -7.841569 -0.000000 0.000000
853
root 11.991958 38.585422 3.480929 168.328475 -38.503612 -128.321365
Spine -13.766216 6.255505 16.753391
Head -3.245086 6.827618 20.196426
LeftShoulder -3.988295 18.040509 20.756798
LeftArm 17.923685 18.651575 -76.863742
LeftForeArm 16.251350 -0.000000 41.338694
LeftHand -15.673960 -0.000000 -6.942824
LeftHandThumb1 -26.253704 0.000000 33.147579
RightShoulder -36.712441 -48.263937 23.652704
RightArm 51.362313 -7.886002 57.159545
RightForeArm 53.118111 -0.000000 32.037881
RightHand -1.288200 -0.000000 16.693527
RightHandThumb1 -24.326973 -0.000000 -32.862282
LeftUpLeg -50.330112 46.393352 2.863207
LeftLeg 21.259885 -0.000000 -0.000000
LeftFoot -11.894075 22.150235 -6.060854
LeftToeBase 3.332624 -0.000000 -0.000000
RightUpLeg -103.730604 -32.461682 7.799183
RightLeg 151.051625 -0.000000 -0.000000
RightFoot 8.179447 5.314830 14.870648
RightToeBase -7.765542 -0.000000 0.000000
854
root 11.945750 38.581957 3.507052 168.623924 -38.367331 -128.683818
Spine -13.954985 6.154395 16.747545
Head -2.949571 7.055100 20.016908
LeftShoulder -4.089306 18.189760 20.588478
LeftArm 17.938953 19.499789 -77.085602
LeftForeArm 16.480166 -0.000000 41.941165
LeftHand -15.684821 -0.000000 -6.883297
LeftHandThumb1 -26.253704 0.000000 33.147579
RightShoulder -36.756999 -48.312456 23.658790
RightArm 51.473386 -7.900266 57.203250
RightForeArm 53.028591 0.000000 31.951887
RightHand -1.385007 -0.000000 16.754366
RightHandThumb1 -24.326973 -0.000000 -32.862282
LeftUpLeg -49.875142 46.057076 3.330333
LeftLeg 21.603900 -0.000000 -0.000000
LeftFoot -11.841644 22.234368 -6.095714
LeftToeBase 3.037530 -0.000000 -0.000000
RightUpLeg -103.825147 -32.452196 7.829853
RightLeg 151.049398 -0.000000 -0.000000
RightFoot 7.931789 5.033752 14.765813
RightToeBase -7.755981 -0.000000 0.000000
855
root 11.900823 38.587508 3.535887 169.039312 -38.202790 -129.052172
Spine -14.294359 6.126623 16.712787
Head -2.568539 7.196708 19.879795
LeftShoulder -4.217209 18.364985 20.454397
LeftArm 18.002960 20.369581 -77.336130
LeftForeArm 16.568829 -0.000000 42.475339
LeftHand -15.956517 -0.000000 -6.715513
LeftHandThumb1 -26.253704 0.000000 33.147579
RightShoulder -36.796049 -48.360428 23.687121
RightArm 51.533478 -7.915020 57.266942
RightForeArm 52.962830 -0.000000 31.870437
RightHand -1.505901 0.000000 16.797741
RightHandThumb1 -24.326973 -0.000000 -32.862282
LeftUpLeg -49.508751 45.708165 3.776364
LeftLeg 21.944683 -0.000000 -0.000000
LeftFoot -11.779074 22.192141 -6.259211
LeftToeBase 2.771777 -0.000000 -0.000000
RightUpLeg -104.085373 -32.346474 8.028120
RightLeg 151.028375 -0.000000 -0.000000
RightFoot 7.572091 4.836708 14.647699
RightToeBase -7.636999 -0.000000 0.000000
856
root 11.859948 38.604817 3.570069 169.613937 -38.087189 -129.332360
Spine -14.921368 6.120133 16.725817
Head -2.098343 7.328160 19.734643
LeftShoulder -4.348672 18.572306 20.312662
LeftArm 18.034750 21.219816 -77.545934
LeftForeArm 16.813698 -0.000000 42.924875
LeftHand -15.581108 -0.000000 -7.210020
LeftHandThumb1 -26.253704 0.000000 33.147579
RightShoulder -36.869805 -48.407886 23.693620
RightArm 51.564746 -8.006952 57.312024
RightForeArm 52.928371 0.000000 31.764869
RightHand -1.455588 -0.000000 16.745910
RightHandThumb1 -24.326973 -0.000000 -32.862282
LeftUpLeg -49.365459 45.215040 4.211780
LeftLeg 22.343060 -0.000000 -0.000000
LeftFoot -11.730688 22.026890 -6.558035
LeftToeBase 2.548399 -0.000000 -0.000000
RightUpLeg -104.644807 -32.215427 8.536802
RightLeg 150.950327 -0.000000 -0.000000
RightFoot 7.206772 4.622171 14.798763
RightToeBase -7.558791 -0.000000 0.000000
